<mxfile host="Electron" modified="2024-01-11T15:17:35.549Z" agent="Mozilla/5.0 (Windows NT 10.0; Win64; x64) AppleWebKit/537.36 (KHTML, like Gecko) draw.io/22.0.3 Chrome/114.0.5735.289 Electron/25.8.4 Safari/537.36" etag="rIlITXHh6X3THWBEJTWQ" version="22.0.3" type="device" pages="2">
  <diagram name="Imperialismo" id="cJrWoRFgqWT1qpxqvpLz">
    <mxGraphModel dx="773" dy="367" grid="1" gridSize="10" guides="1" tooltips="1" connect="1" arrows="1" fold="1" page="1" pageScale="1" pageWidth="827" pageHeight="1169" math="0" shadow="0">
      <root>
        <mxCell id="0" />
        <mxCell id="1" parent="0" />
        <mxCell id="p-2g9cXlPNRKiuDSM0Ku-1" value="Società di massa" style="rounded=0;whiteSpace=wrap;html=1;" vertex="1" parent="1">
          <mxGeometry x="294" y="60" width="120" height="60" as="geometry" />
        </mxCell>
        <mxCell id="p-2g9cXlPNRKiuDSM0Ku-2" value="Suffragio &quot;universale&quot;" style="rounded=0;whiteSpace=wrap;html=1;" vertex="1" parent="1">
          <mxGeometry x="319" y="160" width="70" height="40" as="geometry" />
        </mxCell>
        <mxCell id="p-2g9cXlPNRKiuDSM0Ku-3" value="" style="endArrow=classic;html=1;rounded=0;exitX=0.5;exitY=1;exitDx=0;exitDy=0;entryX=0.5;entryY=0;entryDx=0;entryDy=0;" edge="1" parent="1" source="p-2g9cXlPNRKiuDSM0Ku-1" target="p-2g9cXlPNRKiuDSM0Ku-2">
          <mxGeometry width="50" height="50" relative="1" as="geometry">
            <mxPoint x="290" y="170" as="sourcePoint" />
            <mxPoint x="340" y="120" as="targetPoint" />
          </mxGeometry>
        </mxCell>
        <mxCell id="p-2g9cXlPNRKiuDSM0Ku-5" value="Diritti delle donne&lt;br&gt;&lt;br&gt;Diritto di voto alle donne = Suffragette" style="rounded=0;whiteSpace=wrap;html=1;" vertex="1" parent="1">
          <mxGeometry x="450" y="150" width="156" height="60" as="geometry" />
        </mxCell>
        <mxCell id="p-2g9cXlPNRKiuDSM0Ku-6" value="" style="endArrow=classic;startArrow=classic;html=1;rounded=0;exitX=0;exitY=0.5;exitDx=0;exitDy=0;" edge="1" parent="1" source="p-2g9cXlPNRKiuDSM0Ku-5">
          <mxGeometry width="50" height="50" relative="1" as="geometry">
            <mxPoint x="290" y="230" as="sourcePoint" />
            <mxPoint x="390" y="180" as="targetPoint" />
          </mxGeometry>
        </mxCell>
        <mxCell id="p-2g9cXlPNRKiuDSM0Ku-7" value="Partiti di massa&lt;br&gt;&lt;br&gt;Creazione di movimenti che sostengono idee collettive&lt;br&gt;&lt;br&gt;Propaganda e movimento collettivo delle masse nella vita politica" style="rounded=0;whiteSpace=wrap;html=1;" vertex="1" parent="1">
          <mxGeometry x="250" y="260" width="220" height="130" as="geometry" />
        </mxCell>
        <mxCell id="p-2g9cXlPNRKiuDSM0Ku-9" value="" style="endArrow=classic;html=1;rounded=0;exitX=0.5;exitY=1;exitDx=0;exitDy=0;entryX=0.47;entryY=0.015;entryDx=0;entryDy=0;entryPerimeter=0;" edge="1" parent="1" target="p-2g9cXlPNRKiuDSM0Ku-7">
          <mxGeometry width="50" height="50" relative="1" as="geometry">
            <mxPoint x="353.7" y="200" as="sourcePoint" />
            <mxPoint x="353.7" y="240" as="targetPoint" />
          </mxGeometry>
        </mxCell>
        <mxCell id="p-2g9cXlPNRKiuDSM0Ku-10" value="Partiti socialisti&lt;br&gt;&lt;br&gt;Interessi nella classe operaia&lt;br&gt;&lt;br&gt;Volontà riformista e rivoluzionaria di ispirazione sociale&lt;br&gt;&lt;br&gt;Figure chiave: Marx, Engels&lt;br&gt;&lt;br&gt;Partiti chiave: Partito socialdemocratico, Partito socialista italiano" style="rounded=0;whiteSpace=wrap;html=1;" vertex="1" parent="1">
          <mxGeometry x="20" y="470" width="330" height="150" as="geometry" />
        </mxCell>
        <mxCell id="p-2g9cXlPNRKiuDSM0Ku-11" value="" style="endArrow=classic;html=1;rounded=0;exitX=0.25;exitY=1;exitDx=0;exitDy=0;entryX=0.5;entryY=0;entryDx=0;entryDy=0;" edge="1" parent="1" source="p-2g9cXlPNRKiuDSM0Ku-7" target="p-2g9cXlPNRKiuDSM0Ku-10">
          <mxGeometry width="50" height="50" relative="1" as="geometry">
            <mxPoint x="340" y="500" as="sourcePoint" />
            <mxPoint x="390" y="450" as="targetPoint" />
          </mxGeometry>
        </mxCell>
        <mxCell id="p-2g9cXlPNRKiuDSM0Ku-12" value="Partiti cattolici&lt;br&gt;&lt;br&gt;Programmi di conciliazione sociale e sostegno alle classi più svantaggiate" style="rounded=0;whiteSpace=wrap;html=1;" vertex="1" parent="1">
          <mxGeometry x="390" y="480" width="196" height="100" as="geometry" />
        </mxCell>
        <mxCell id="p-2g9cXlPNRKiuDSM0Ku-13" value="" style="endArrow=classic;html=1;rounded=0;exitX=0.586;exitY=1.011;exitDx=0;exitDy=0;entryX=0.5;entryY=0;entryDx=0;entryDy=0;exitPerimeter=0;" edge="1" parent="1" source="p-2g9cXlPNRKiuDSM0Ku-7" target="p-2g9cXlPNRKiuDSM0Ku-12">
          <mxGeometry width="50" height="50" relative="1" as="geometry">
            <mxPoint x="315" y="400" as="sourcePoint" />
            <mxPoint x="205" y="480" as="targetPoint" />
          </mxGeometry>
        </mxCell>
        <mxCell id="p-2g9cXlPNRKiuDSM0Ku-14" value="Partiti liberali&lt;br&gt;&lt;br&gt;Per la media borghesia, industriali, grandi proprietari terrieri" style="rounded=0;whiteSpace=wrap;html=1;" vertex="1" parent="1">
          <mxGeometry x="620" y="480" width="196" height="100" as="geometry" />
        </mxCell>
        <mxCell id="p-2g9cXlPNRKiuDSM0Ku-15" value="" style="endArrow=classic;html=1;rounded=0;exitX=0.93;exitY=0.996;exitDx=0;exitDy=0;entryX=0.5;entryY=0;entryDx=0;entryDy=0;exitPerimeter=0;" edge="1" parent="1" source="p-2g9cXlPNRKiuDSM0Ku-7" target="p-2g9cXlPNRKiuDSM0Ku-14">
          <mxGeometry width="50" height="50" relative="1" as="geometry">
            <mxPoint x="389" y="401" as="sourcePoint" />
            <mxPoint x="498" y="490" as="targetPoint" />
          </mxGeometry>
        </mxCell>
        <mxCell id="p-2g9cXlPNRKiuDSM0Ku-16" value="Nascita di organizzazioni a tutela dei diritti dei lavoratori&lt;br&gt;=&amp;nbsp;&lt;br&gt;Sindacati&lt;br&gt;&lt;br&gt;Nascita in Italia della Confederazione Generale del Lavoro (Cgl)&lt;br&gt;&lt;br&gt;Diritto di sciopero, riduzione delle giornate lavorative, aumento di salati, diritto di associazione" style="whiteSpace=wrap;html=1;aspect=fixed;" vertex="1" parent="1">
          <mxGeometry x="390" y="610" width="220" height="220" as="geometry" />
        </mxCell>
      </root>
    </mxGraphModel>
  </diagram>
  <diagram id="h2wC9LSvifDStKuok4Zb" name="Europa">
    <mxGraphModel dx="1110" dy="527" grid="1" gridSize="10" guides="1" tooltips="1" connect="1" arrows="1" fold="1" page="1" pageScale="1" pageWidth="827" pageHeight="1169" math="0" shadow="0">
      <root>
        <mxCell id="0" />
        <mxCell id="1" parent="0" />
        <mxCell id="Xlm5awfGLHvjgEWFVUDA-2" value="Orientamenti politici" style="rounded=0;whiteSpace=wrap;html=1;" vertex="1" parent="1">
          <mxGeometry x="330" y="60" width="120" height="60" as="geometry" />
        </mxCell>
        <mxCell id="Xlm5awfGLHvjgEWFVUDA-3" value="" style="endArrow=classic;html=1;rounded=0;exitX=0;exitY=0.5;exitDx=0;exitDy=0;entryX=0.5;entryY=0;entryDx=0;entryDy=0;" edge="1" parent="1" source="Xlm5awfGLHvjgEWFVUDA-2" target="Xlm5awfGLHvjgEWFVUDA-4">
          <mxGeometry width="50" height="50" relative="1" as="geometry">
            <mxPoint x="389" y="401" as="sourcePoint" />
            <mxPoint x="498" y="490" as="targetPoint" />
          </mxGeometry>
        </mxCell>
        <mxCell id="Xlm5awfGLHvjgEWFVUDA-4" value="Progressisti = Movimenti per i lavoratori e i loro diritti&lt;br&gt;&lt;br&gt;Democratizzazione = Gran Bretagna, Francia, Italia" style="rounded=0;whiteSpace=wrap;html=1;" vertex="1" parent="1">
          <mxGeometry x="160" y="160" width="170" height="90" as="geometry" />
        </mxCell>
        <mxCell id="Xlm5awfGLHvjgEWFVUDA-5" value="Conservatori = Borghesia industriale e finanziaria&lt;br&gt;&lt;br&gt;Forze conservatrici = Germania, Russia" style="rounded=0;whiteSpace=wrap;html=1;" vertex="1" parent="1">
          <mxGeometry x="360" y="170" width="170" height="90" as="geometry" />
        </mxCell>
        <mxCell id="Xlm5awfGLHvjgEWFVUDA-6" value="" style="endArrow=classic;html=1;rounded=0;exitX=0.5;exitY=1;exitDx=0;exitDy=0;entryX=0.5;entryY=0;entryDx=0;entryDy=0;" edge="1" parent="1" source="Xlm5awfGLHvjgEWFVUDA-2" target="Xlm5awfGLHvjgEWFVUDA-5">
          <mxGeometry width="50" height="50" relative="1" as="geometry">
            <mxPoint x="450" y="90" as="sourcePoint" />
            <mxPoint x="559" y="179" as="targetPoint" />
          </mxGeometry>
        </mxCell>
        <mxCell id="Xlm5awfGLHvjgEWFVUDA-7" value="Nazionalismo = Orgoglio ossessivo di grandezza della propria patria e difesa nazionale&lt;br&gt;&lt;br&gt;Forze nazionalista = USA, Giappone, Russia" style="rounded=0;whiteSpace=wrap;html=1;" vertex="1" parent="1">
          <mxGeometry x="570" y="150" width="160" height="110" as="geometry" />
        </mxCell>
        <mxCell id="Xlm5awfGLHvjgEWFVUDA-8" value="" style="endArrow=classic;html=1;rounded=0;exitX=1;exitY=0.25;exitDx=0;exitDy=0;entryX=0.556;entryY=0.011;entryDx=0;entryDy=0;entryPerimeter=0;" edge="1" parent="1" source="Xlm5awfGLHvjgEWFVUDA-2" target="Xlm5awfGLHvjgEWFVUDA-7">
          <mxGeometry width="50" height="50" relative="1" as="geometry">
            <mxPoint x="460" y="100" as="sourcePoint" />
            <mxPoint x="485" y="170" as="targetPoint" />
          </mxGeometry>
        </mxCell>
        <mxCell id="Xlm5awfGLHvjgEWFVUDA-10" value="Alessandro II = Repressioni di rivolte - Assassinato dagli anarchici&lt;br&gt;&lt;br&gt;Alessandro III = Imposizione forzata delle &quot;caratteristiche russe&quot; (religione ortodossa, lingua russa)" style="rounded=0;whiteSpace=wrap;html=1;" vertex="1" parent="1">
          <mxGeometry x="30" y="300" width="260" height="120" as="geometry" />
        </mxCell>
        <mxCell id="Xlm5awfGLHvjgEWFVUDA-11" value="Modernizzazione e industrializzazione&amp;nbsp;&lt;br&gt;&lt;br&gt;Costruzione di ferrovie - Transiberiana/Transcapiana&amp;nbsp;&lt;br&gt;Impianti siderurgici&lt;br&gt;" style="rounded=0;whiteSpace=wrap;html=1;" vertex="1" parent="1">
          <mxGeometry x="320" y="300" width="230" height="110" as="geometry" />
        </mxCell>
        <mxCell id="Xlm5awfGLHvjgEWFVUDA-12" value="Monarchia assoluta (zarismo)&lt;br&gt;&lt;br&gt;Vi era la promessa di una costituzione emessa e discussa da un parlamento (Duma)" style="rounded=0;whiteSpace=wrap;html=1;" vertex="1" parent="1">
          <mxGeometry x="570" y="300" width="244" height="110" as="geometry" />
        </mxCell>
        <mxCell id="Xlm5awfGLHvjgEWFVUDA-13" value="Francia&amp;nbsp;&lt;br&gt;&lt;br&gt;Terza Repubblica / Sentimento di odio nei confronti nei Tedeschi / Cessione Alsazia e Lorena alla Germania&lt;br&gt;&lt;br&gt;Affare Dreffus = Spionaggio&amp;nbsp;&lt;br&gt;&lt;br&gt;Destra nazionalista e antisemita che sostenne la sua colpevolezza di spionaggio a favore della Germania e si schierano figure pubbliche a suo vantaggio&lt;br&gt;&lt;br&gt;Riconosciuto innocente&lt;br&gt;&lt;br&gt;Scatena una serie di conflitti interni agli stati per antisemitismo" style="rounded=0;whiteSpace=wrap;html=1;" vertex="1" parent="1">
          <mxGeometry x="190" y="440" width="480" height="240" as="geometry" />
        </mxCell>
      </root>
    </mxGraphModel>
  </diagram>
</mxfile>
